<?xml version="1.0" standalone="no"?>
<!DOCTYPE svg PUBLIC "-//W3C//DTD SVG 20010904//EN"
 "http://www.w3.org/TR/2001/REC-SVG-20010904/DTD/svg10.dtd">
<svg version="1.0" xmlns="http://www.w3.org/2000/svg"
 width="700.000000pt" height="700.000000pt" viewBox="0 0 700.000000 700.000000"
 preserveAspectRatio="xMidYMid meet">
<metadata>
Created by potrace 1.11, written by Peter Selinger 2001-2013
</metadata>
<g transform="translate(0.000000,700.000000) scale(0.100000,-0.100000)"
fill="#000000" stroke="none">
<path d="M2055 6709 c-136 -52 -209 -142 -319 -399 -73 -170 -131 -286 -157
-314 -12 -11 -53 -63 -92 -115 l-72 -94 2 -61 c8 -243 6 -269 -21 -361 -32
-106 -94 -271 -114 -302 -7 -12 -13 -25 -12 -28 2 -12 -80 -176 -111 -222 -18
-26 -64 -79 -102 -118 -86 -88 -118 -150 -110 -214 11 -83 8 -235 -6 -286 -74
-275 -209 -585 -316 -731 -92 -124 -94 -129 -88 -254 5 -102 3 -116 -31 -235
-20 -70 -42 -141 -50 -159 -7 -17 -19 -47 -26 -66 -7 -19 -23 -59 -36 -88 -13
-29 -24 -55 -24 -57 0 -8 -72 -152 -115 -230 -36 -66 -61 -104 -140 -215 -63
-89 -76 -138 -55 -210 11 -36 14 -122 6 -175 -3 -16 -7 -61 -11 -99 -8 -79 -8
-80 -30 -156 -25 -83 -27 -252 -4 -353 62 -279 244 -534 507 -710 76 -51 214
-119 285 -140 152 -47 89 -46 2222 -46 1322 0 2027 3 2060 10 28 6 61 12 74
15 58 12 182 68 256 116 142 91 266 226 334 364 28 57 103 286 161 489 5 17
17 59 28 95 27 87 77 249 157 515 37 121 75 247 85 280 10 33 32 105 49 160
16 55 55 183 86 285 58 189 94 307 99 325 1 6 13 44 26 85 13 41 24 80 26 85
1 6 27 93 59 195 31 102 58 192 60 200 2 8 56 186 120 395 65 209 121 394 125
410 4 17 28 95 53 175 99 319 100 326 100 450 0 150 -30 242 -117 354 -46 60
-186 156 -226 156 -5 0 -8 -30 -8 -67 -1 -101 -3 -113 -107 -453 -53 -173
-101 -331 -107 -350 -5 -19 -21 -71 -35 -115 -13 -44 -26 -87 -28 -95 -3 -13
-97 -320 -196 -645 -34 -111 -39 -125 -73 -240 -29 -94 -79 -259 -135 -440
-45 -147 -288 -947 -361 -1190 -46 -153 -93 -307 -195 -645 -26 -85 -58 -174
-71 -197 -48 -83 -153 -150 -272 -173 -67 -13 -4114 -9 -4172 4 -240 53 -360
146 -405 315 -23 89 -3 145 66 186 38 22 -125 21 2819 28 1277 3 1223 0 1376
72 186 89 268 258 504 1040 45 149 113 374 152 500 38 127 73 244 78 260 4 17
40 136 80 265 39 129 84 278 100 330 15 52 51 172 80 265 161 528 204 673 220
730 4 17 19 66 33 110 35 110 274 900 304 1005 57 202 50 339 -27 491 -76 150
-208 251 -385 296 -16 4 -781 9 -1700 10 -1583 2 -1674 1 -1755 -16 -47 -10
-89 -15 -95 -11 -13 10 -116 23 -184 24 -29 1 -72 -6 -96 -15z m3178 -1059
c66 0 105 -37 102 -95 -3 -45 -88 -308 -111 -343 -24 -37 -48 -62 -58 -62 -5
0 -18 -8 -29 -17 -18 -17 -96 -18 -1337 -18 -1414 0 -1354 -2 -1378 50 -15 33
-5 83 50 244 64 189 105 234 218 240 30 1 56 3 57 4 1 2 2261 -1 2486 -3z
m-295 -1084 c31 -11 55 -61 48 -101 -4 -18 -28 -98 -54 -178 -59 -177 -89
-218 -182 -244 -12 -3 -2392 -6 -2587 -4 -28 1 -50 8 -68 24 -39 33 -35 81 21
252 61 183 100 236 188 254 43 9 2607 6 2634 -3z"/>
</g>
</svg>
